<?xml version="1.0" encoding="utf-8"?>
<!-- Generator: Adobe Illustrator 21.1.0, SVG Export Plug-In . SVG Version: 6.00 Build 0)  -->
<svg version="1.1" id="Layer_1" xmlns="http://www.w3.org/2000/svg" xmlns:xlink="http://www.w3.org/1999/xlink" x="0px" y="0px"
	 viewBox="0 0 912.8 807.7" style="enable-background:new 0 0 912.8 807.7;" xml:space="preserve">
<style type="text/css">
	.st0{fill:none;stroke:#000000;stroke-width:0.5;stroke-miterlimit:10;}
	.st1{fill:#FFFFFF;}
	.st2{font-family:'DINPro-Regular';}
	.st3{font-size:5.5889px;}
	.st4{font-family:'DINPro-Bold';}
</style>
<polygon class="st0" points="397.2,378 462.7,323.3 495.2,345.8 516.3,345.3 566.9,323.3 566.9,376 561.4,381.5 571.9,392.1 
	571.9,410 544,420.7 534.4,453 495.2,453 410.4,430.7 406.5,417.6 395.1,413.2 395.1,405.9 399.4,401.7 397.2,399.4 "/>
<text transform="matrix(1 0 0 1 315.6579 151.1691)"><tspan x="0" y="0" class="st1 st2 st3">AZERBAI</tspan><tspan x="22.3" y="0" class="st1 st2 st3">J</tspan><tspan x="25" y="0" class="st1 st2 st3">AN</tspan></text>
<text transform="matrix(1 0 0 1 315.6579 157.8761)"><tspan x="0" y="0" class="st1 st4 st3">DIGI</tspan><tspan x="10.7" y="0" class="st1 st4 st3">T</tspan><tspan x="13.5" y="0" class="st1 st4 st3">AL</tspan></text>
<text transform="matrix(1 0 0 1 315.6579 164.5831)" class="st1 st4 st3">ART</text>
<text transform="matrix(1 0 0 1 326.07 164.5831)" class="st1 st2 st3"> SCHOOL</text>
<rect x="312.8" y="146.8" class="st1" width="0.8" height="17.8"/>
</svg>
